{"asset":{"version":"2.0","generator":"VECTARY"},"nodes":[{"translation":[-0.010965600115702275,0.8627086572817275,2.295139237153683],"scale":[1,1,1],"rotation":[-0.058898450701308724,1.0497158697830855e-12,6.189493362285248e-14,0.9982639793686767],"name":"Camera","camera":0},{"translation":[0,0.02290887058796278,-1.7763568394002505e-18],"scale":[0.7688257765652607,0.9423372188065249,1],"rotation":[0,0,1,0],"name":"Mesh_2","mesh":0},{"translation":[0,0.02290887058796278,-1.7763568394002505e-18],"scale":[0.7688257765652607,0.9423372188065249,1],"rotation":[0,0,1,0],"name":"Mesh_1","mesh":1},{"translation":[0.0688947773805234,0.022908870587962673,-3.552713678800501e-18],"scale":[0.9185970317403117,0.942337218806525,1],"rotation":[0,0,1,0],"name":"Mesh_10","mesh":2},{"translation":[0,0.022908870587962673,-3.552713678800501e-18],"scale":[0.7688257765652607,0.942337218806525,1],"rotation":[0,0,1,0],"name":"Mesh_3","mesh":3},{"translation":[-0.0688947773805234,0.022908870587962673,-3.552713678800501e-18],"scale":[0.9185970317403117,0.942337218806525,1],"rotation":[0,0,1,0],"name":"Mesh_9","mesh":4},{"translation":[-0.0688947773805234,0.02290887058796278,-1.7763568394002505e-18],"scale":[0.9185970317403117,0.9423372188065249,1],"rotation":[0,0,1,0],"name":"Mesh_7","mesh":5},{"translation":[-0.0688947773805234,1.126493824012192,-1.1368683772161603e-16],"scale":[0.9185970317403117,0.942337218806525,1],"rotation":[0,0,0,1],"name":"Mesh_10.002","mesh":6},{"translation":[0,1.1263745238700977,-1.1368683772161603e-16],"scale":[0.7688257765652641,0.9423372188065284,1],"rotation":[1.1102230246251565e-16,-1.115445582940869e-9,4.372561817518948e-8,0.9999999999999991],"name":"Mesh_3.001","mesh":7},{"translation":[0.0688947773805234,1.1263745238700977,-1.1368683772161603e-16],"scale":[0.9185970317403117,0.942337218806525,1],"rotation":[0,0,0,1],"name":"Mesh_9.002","mesh":8},{"translation":[0.0688947773805234,0.02290887058796278,-1.7763568394002505e-18],"scale":[0.9185970317403117,0.9423372188065249,1],"rotation":[0,0,1,0],"name":"Mesh_5","mesh":9},{"translation":[0,0.571803881435576,-0.008988933674051396],"scale":[0.0032049938064258334,0.0032049938064258334,0.0032049938064258334],"rotation":[-2.220446049250313e-16,0,0,1],"name":"Image_Plane","mesh":10}],"cameras":[{"name":"Camera","type":"perspective","extras":{"targetDistance":2.314300447952762},"perspective":{"aspectRatio":1.3258110014104372,"yfov":0.6108652381980153,"zfar":50,"znear":0.001}}],"materials":[{"pbrMetallicRoughness":{"baseColorFactor":[1,1,1,1],"baseColorTexture":{"index":0,"extensions":{"KHR_texture_transform":{"offset":[0,0],"scale":[1,1],"rotation":0}},"texCoord":0},"metallicFactor":0.10000000149011612,"roughnessFactor":0.8999999761581421},"name":"Mounting Board","normalTexture":{"index":1,"scale":1,"extensions":{"KHR_texture_transform":{"offset":[0,0],"scale":[1,1],"rotation":0}},"texCoord":0},"emissiveFactor":[0,0,0],"alphaMode":"OPAQUE","doubleSided":false},{"pbrMetallicRoughness":{"baseColorFactor":[0.033104766160249696,0.033104766160249696,0.033104766160249696,0.10000000149011612],"metallicFactor":1,"roughnessFactor":0},"name":"glass","emissiveFactor":[0,0,0],"alphaMode":"BLEND","doubleSided":true},{"pbrMetallicRoughness":{"baseColorFactor":[1,1,1,1],"baseColorTexture":{"index":2,"extensions":{"KHR_texture_transform":{"offset":[0,0],"scale":[1,1],"rotation":0}},"texCoord":0},"metallicRoughnessTexture":{"index":4,"extensions":{"KHR_texture_transform":{"offset":[0,0],"scale":[1,1],"rotation":0}},"texCoord":0},"metallicFactor":1,"roughnessFactor":0.8999999761581421},"name":"Photo Frame","normalTexture":{"index":3,"scale":0.10000000149011612,"extensions":{"KHR_texture_transform":{"offset":[0,0],"scale":[1,1],"rotation":0}},"texCoord":0},"emissiveFactor":[0,0,0],"alphaMode":"OPAQUE","doubleSided":false},{"pbrMetallicRoughness":{"baseColorFactor":[1,1,1,1],"baseColorTexture":{"index":2,"extensions":{"KHR_texture_transform":{"offset":[0,0],"scale":[1,1],"rotation":0}},"texCoord":0},"metallicRoughnessTexture":{"index":4,"extensions":{"KHR_texture_transform":{"offset":[0,0],"scale":[1,1],"rotation":0}},"texCoord":0},"metallicFactor":1,"roughnessFactor":0.8999999761581421},"name":"Photo Frame0","normalTexture":{"index":3,"scale":0.10000000149011612,"extensions":{"KHR_texture_transform":{"offset":[0,0],"scale":[1,1],"rotation":0}},"texCoord":0},"emissiveFactor":[0,0,0],"alphaMode":"OPAQUE","doubleSided":false},{"pbrMetallicRoughness":{"baseColorFactor":[1,1,1,1],"baseColorTexture":{"index":2,"extensions":{"KHR_texture_transform":{"offset":[0,0],"scale":[1,1],"rotation":0}},"texCoord":0},"metallicRoughnessTexture":{"index":4,"extensions":{"KHR_texture_transform":{"offset":[0,0],"scale":[1,1],"rotation":0}},"texCoord":0},"metallicFactor":1,"roughnessFactor":0.8999999761581421},"name":"Photo Frame1","normalTexture":{"index":3,"scale":0.10000000149011612,"extensions":{"KHR_texture_transform":{"offset":[0,0],"scale":[1,1],"rotation":0}},"texCoord":0},"emissiveFactor":[0,0,0],"alphaMode":"OPAQUE","doubleSided":false},{"pbrMetallicRoughness":{"baseColorFactor":[1,1,1,1],"baseColorTexture":{"index":2,"extensions":{"KHR_texture_transform":{"offset":[0,0],"scale":[1,1],"rotation":0}},"texCoord":0},"metallicRoughnessTexture":{"index":4,"extensions":{"KHR_texture_transform":{"offset":[0,0],"scale":[1,1],"rotation":0}},"texCoord":0},"metallicFactor":1,"roughnessFactor":0.8999999761581421},"name":"Photo Frame2","normalTexture":{"index":3,"scale":0.10000000149011612,"extensions":{"KHR_texture_transform":{"offset":[0,0],"scale":[1,1],"rotation":0}},"texCoord":0},"emissiveFactor":[0,0,0],"alphaMode":"OPAQUE","doubleSided":false},{"pbrMetallicRoughness":{"baseColorFactor":[1,1,1,1],"baseColorTexture":{"index":2,"extensions":{"KHR_texture_transform":{"offset":[0,0],"scale":[1,1],"rotation":0}},"texCoord":0},"metallicRoughnessTexture":{"index":4,"extensions":{"KHR_texture_transform":{"offset":[0,0],"scale":[1,1],"rotation":0}},"texCoord":0},"metallicFactor":1,"roughnessFactor":0.8999999761581421},"name":"Photo Frame3","normalTexture":{"index":3,"scale":0.10000000149011612,"extensions":{"KHR_texture_transform":{"offset":[0,0],"scale":[1,1],"rotation":0}},"texCoord":0},"emissiveFactor":[0,0,0],"alphaMode":"OPAQUE","doubleSided":false},{"pbrMetallicRoughness":{"baseColorFactor":[1,1,1,1],"baseColorTexture":{"index":2,"extensions":{"KHR_texture_transform":{"offset":[0,0],"scale":[1,1],"rotation":0}},"texCoord":0},"metallicRoughnessTexture":{"index":4,"extensions":{"KHR_texture_transform":{"offset":[0,0],"scale":[1,1],"rotation":0}},"texCoord":0},"metallicFactor":1,"roughnessFactor":0.8999999761581421},"name":"Photo Frame4","normalTexture":{"index":3,"scale":0.10000000149011612,"extensions":{"KHR_texture_transform":{"offset":[0,0],"scale":[1,1],"rotation":0}},"texCoord":0},"emissiveFactor":[0,0,0],"alphaMode":"OPAQUE","doubleSided":false},{"pbrMetallicRoughness":{"baseColorFactor":[1,1,1,1],"baseColorTexture":{"index":2,"extensions":{"KHR_texture_transform":{"offset":[0,0],"scale":[1,1],"rotation":0}},"texCoord":0},"metallicRoughnessTexture":{"index":4,"extensions":{"KHR_texture_transform":{"offset":[0,0],"scale":[1,1],"rotation":0}},"texCoord":0},"metallicFactor":1,"roughnessFactor":0.8999999761581421},"name":"Photo Frame5","normalTexture":{"index":3,"scale":0.10000000149011612,"extensions":{"KHR_texture_transform":{"offset":[0,0],"scale":[1,1],"rotation":0}},"texCoord":0},"emissiveFactor":[0,0,0],"alphaMode":"OPAQUE","doubleSided":false},{"pbrMetallicRoughness":{"baseColorFactor":[1,1,1,1],"baseColorTexture":{"index":2,"extensions":{"KHR_texture_transform":{"offset":[0,0],"scale":[1,1],"rotation":0}},"texCoord":0},"metallicRoughnessTexture":{"index":4,"extensions":{"KHR_texture_transform":{"offset":[0,0],"scale":[1,1],"rotation":0}},"texCoord":0},"metallicFactor":1,"roughnessFactor":0.8999999761581421},"name":"Photo Frame6","normalTexture":{"index":3,"scale":0.10000000149011612,"extensions":{"KHR_texture_transform":{"offset":[0,0],"scale":[1,1],"rotation":0}},"texCoord":0},"emissiveFactor":[0,0,0],"alphaMode":"OPAQUE","doubleSided":false},{"pbrMetallicRoughness":{"baseColorFactor":[1,1,1,1],"baseColorTexture":{"index":5,"extensions":{"KHR_texture_transform":{"offset":[0,0],"scale":[1,1],"rotation":0}},"texCoord":0},"metallicFactor":0,"roughnessFactor":1},"name":"","emissiveTexture":{"index":6,"extensions":{"KHR_texture_transform":{"offset":[0,0],"scale":[1,1],"rotation":0}},"texCoord":0},"emissiveFactor":[0,0,0],"alphaMode":"OPAQUE","doubleSided":true}],"textures":[{"sampler":0,"source":0},{"sampler":0,"source":1},{"sampler":0,"source":2},{"sampler":0,"source":3},{"sampler":0,"source":4},{"sampler":0,"source":5},{"sampler":1,"source":6}],"images":[{"uri":"Gltf_Import_4.jpg","mimeType":"image/jpeg"},{"uri":"Gltf_Import_5.jpg","mimeType":"image/jpeg"},{"uri":"Gltf_Import_7.jpg","mimeType":"image/jpeg"},{"uri":"Gltf_Import_9.jpg","mimeType":"image/jpeg"},{"uri":"Gltf_Import_8.jpg","mimeType":"image/jpeg"},{"uri":"Image_Plane_1.jpg","mimeType":"image/jpeg"},{"uri":"Image_Plane.jpg","mimeType":"image/jpeg"}],"samplers":[{"wrapS":10497,"wrapT":10497},{"wrapS":33071,"wrapT":33071}],"meshes":[{"primitives":[{"mode":4,"attributes":{"POSITION":1,"NORMAL":2,"TEXCOORD_0":3},"material":0,"indices":0}]},{"primitives":[{"mode":4,"attributes":{"POSITION":5,"NORMAL":6},"material":1,"indices":4}]},{"primitives":[{"mode":4,"attributes":{"POSITION":8,"NORMAL":9,"TEXCOORD_0":10},"material":2,"indices":7}]},{"primitives":[{"mode":4,"attributes":{"POSITION":12,"NORMAL":13,"TEXCOORD_0":14},"material":3,"indices":11}]},{"primitives":[{"mode":4,"attributes":{"POSITION":16,"NORMAL":17,"TEXCOORD_0":18},"material":4,"indices":15}]},{"primitives":[{"mode":4,"attributes":{"POSITION":20,"NORMAL":21,"TEXCOORD_0":22},"material":5,"indices":19}]},{"primitives":[{"mode":4,"attributes":{"POSITION":24,"NORMAL":25,"TEXCOORD_0":26},"material":6,"indices":23}]},{"primitives":[{"mode":4,"attributes":{"POSITION":28,"NORMAL":29,"TEXCOORD_0":30},"material":7,"indices":27}]},{"primitives":[{"mode":4,"attributes":{"POSITION":32,"NORMAL":33,"TEXCOORD_0":34},"material":8,"indices":31}]},{"primitives":[{"mode":4,"attributes":{"POSITION":36,"NORMAL":37,"TEXCOORD_0":38},"material":9,"indices":35}]},{"primitives":[{"mode":4,"attributes":{"POSITION":40,"NORMAL":41,"TEXCOORD_0":42},"material":10,"indices":39}]}],"accessors":[{"bufferView":0,"byteOffset":0,"componentType":5125,"count":36,"type":"SCALAR"},{"bufferView":1,"byteOffset":0,"componentType":5126,"count":24,"max":[0.45995989441871643,-0.12552113831043243,-0.012674212455749512],"min":[-0.4599530100822449,-1.0455068349838257,-0.01767408847808838],"type":"VEC3"},{"bufferView":2,"byteOffset":0,"componentType":5126,"count":24,"type":"VEC3"},{"bufferView":3,"byteOffset":0,"componentType":5126,"count":24,"type":"VEC2"},{"bufferView":4,"byteOffset":0,"componentType":5125,"count":6,"type":"SCALAR"},{"bufferView":5,"byteOffset":0,"componentType":5126,"count":4,"max":[0.45995989441871643,-0.12552113831043243,-0.00967419147491455],"min":[-0.4599530100822449,-1.0455068349838257,-0.00967419147491455],"type":"VEC3"},{"bufferView":6,"byteOffset":0,"componentType":5126,"count":4,"type":"VEC3"},{"bufferView":7,"byteOffset":0,"componentType":5125,"count":36,"type":"SCALAR"},{"bufferView":8,"byteOffset":0,"componentType":5126,"count":24,"max":[0.4999598562717438,-1.0455936193466187,0.017325758934020996],"min":[0.45995989441871643,-1.085593581199646,-0.012674212455749512],"type":"VEC3"},{"bufferView":9,"byteOffset":0,"componentType":5126,"count":24,"type":"VEC3"},{"bufferView":10,"byteOffset":0,"componentType":5126,"count":24,"type":"VEC2"},{"bufferView":11,"byteOffset":0,"componentType":5125,"count":36,"type":"SCALAR"},{"bufferView":12,"byteOffset":0,"componentType":5126,"count":24,"max":[0.45995989441871643,-1.0454670190811157,0.017325758934020996],"min":[-0.4599529504776001,-1.085466980934143,-0.012674212455749512],"type":"VEC3"},{"bufferView":13,"byteOffset":0,"componentType":5126,"count":24,"type":"VEC3"},{"bufferView":14,"byteOffset":0,"componentType":5126,"count":24,"type":"VEC2"},{"bufferView":15,"byteOffset":0,"componentType":5125,"count":36,"type":"SCALAR"},{"bufferView":16,"byteOffset":0,"componentType":5126,"count":24,"max":[-0.4599529504776001,-1.0454670190811157,0.017325758934020996],"min":[-0.49995291233062744,-1.085466980934143,-0.012674212455749512],"type":"VEC3"},{"bufferView":17,"byteOffset":0,"componentType":5126,"count":24,"type":"VEC3"},{"bufferView":18,"byteOffset":0,"componentType":5126,"count":24,"type":"VEC2"},{"bufferView":19,"byteOffset":0,"componentType":5125,"count":36,"type":"SCALAR"},{"bufferView":20,"byteOffset":0,"componentType":5126,"count":24,"max":[-0.4599529504776001,-0.1255178600549698,0.017325758934020996],"min":[-0.49995291233062744,-1.0455068349838257,-0.012674212455749512],"type":"VEC3"},{"bufferView":21,"byteOffset":0,"componentType":5126,"count":24,"type":"VEC3"},{"bufferView":22,"byteOffset":0,"componentType":5126,"count":24,"type":"VEC2"},{"bufferView":23,"byteOffset":0,"componentType":5125,"count":36,"type":"SCALAR"},{"bufferView":24,"byteOffset":0,"componentType":5126,"count":24,"max":[0.4999598264694214,-1.045593500137329,0.017325758934020996],"min":[0.45995986461639404,-1.0855934619903564,-0.012674212455749512],"type":"VEC3"},{"bufferView":25,"byteOffset":0,"componentType":5126,"count":24,"type":"VEC3"},{"bufferView":26,"byteOffset":0,"componentType":5126,"count":24,"type":"VEC2"},{"bufferView":27,"byteOffset":0,"componentType":5125,"count":36,"type":"SCALAR"},{"bufferView":28,"byteOffset":0,"componentType":5126,"count":24,"max":[0.45995986461639404,-1.0454668998718262,0.017325758934020996],"min":[-0.4599529802799225,-1.0854668617248535,-0.012674212455749512],"type":"VEC3"},{"bufferView":29,"byteOffset":0,"componentType":5126,"count":24,"type":"VEC3"},{"bufferView":30,"byteOffset":0,"componentType":5126,"count":24,"type":"VEC2"},{"bufferView":31,"byteOffset":0,"componentType":5125,"count":36,"type":"SCALAR"},{"bufferView":32,"byteOffset":0,"componentType":5126,"count":28,"max":[-0.4599529802799225,-1.0454668998718262,0.017325758934020996],"min":[-0.49995294213294983,-1.0854668617248535,-0.012674212455749512],"type":"VEC3"},{"bufferView":33,"byteOffset":0,"componentType":5126,"count":28,"type":"VEC3"},{"bufferView":34,"byteOffset":0,"componentType":5126,"count":28,"type":"VEC2"},{"bufferView":35,"byteOffset":0,"componentType":5125,"count":36,"type":"SCALAR"},{"bufferView":36,"byteOffset":0,"componentType":5126,"count":24,"max":[0.4999598562717438,-0.12552113831043243,0.017325758934020996],"min":[0.45995989441871643,-1.0455068349838257,-0.012674212455749512],"type":"VEC3"},{"bufferView":37,"byteOffset":0,"componentType":5126,"count":24,"type":"VEC3"},{"bufferView":38,"byteOffset":0,"componentType":5126,"count":24,"type":"VEC2"},{"bufferView":39,"byteOffset":0,"componentType":5125,"count":150,"type":"SCALAR"},{"bufferView":40,"byteOffset":0,"componentType":5126,"count":36,"max":[85.54720306396484,128,0.20000000298023224],"min":[-85.54720306396484,-128,0.20000000298023224],"type":"VEC3"},{"bufferView":41,"byteOffset":0,"componentType":5126,"count":36,"type":"VEC3"},{"bufferView":42,"byteOffset":0,"componentType":5126,"count":36,"type":"VEC2"}],"bufferViews":[{"buffer":0,"byteOffset":0,"byteLength":144,"target":34963},{"buffer":0,"byteOffset":144,"byteLength":288,"target":34962},{"buffer":0,"byteOffset":432,"byteLength":288,"target":34962},{"buffer":0,"byteOffset":720,"byteLength":192,"target":34962},{"buffer":0,"byteOffset":912,"byteLength":24,"target":34963},{"buffer":0,"byteOffset":936,"byteLength":48,"target":34962},{"buffer":0,"byteOffset":984,"byteLength":48,"target":34962},{"buffer":0,"byteOffset":1032,"byteLength":144,"target":34963},{"buffer":0,"byteOffset":1176,"byteLength":288,"target":34962},{"buffer":0,"byteOffset":1464,"byteLength":288,"target":34962},{"buffer":0,"byteOffset":1752,"byteLength":192,"target":34962},{"buffer":0,"byteOffset":1944,"byteLength":144,"target":34963},{"buffer":0,"byteOffset":2088,"byteLength":288,"target":34962},{"buffer":0,"byteOffset":2376,"byteLength":288,"target":34962},{"buffer":0,"byteOffset":2664,"byteLength":192,"target":34962},{"buffer":0,"byteOffset":2856,"byteLength":144,"target":34963},{"buffer":0,"byteOffset":3000,"byteLength":288,"target":34962},{"buffer":0,"byteOffset":3288,"byteLength":288,"target":34962},{"buffer":0,"byteOffset":3576,"byteLength":192,"target":34962},{"buffer":0,"byteOffset":3768,"byteLength":144,"target":34963},{"buffer":0,"byteOffset":3912,"byteLength":288,"target":34962},{"buffer":0,"byteOffset":4200,"byteLength":288,"target":34962},{"buffer":0,"byteOffset":4488,"byteLength":192,"target":34962},{"buffer":0,"byteOffset":4680,"byteLength":144,"target":34963},{"buffer":0,"byteOffset":4824,"byteLength":288,"target":34962},{"buffer":0,"byteOffset":5112,"byteLength":288,"target":34962},{"buffer":0,"byteOffset":5400,"byteLength":192,"target":34962},{"buffer":0,"byteOffset":5592,"byteLength":144,"target":34963},{"buffer":0,"byteOffset":5736,"byteLength":288,"target":34962},{"buffer":0,"byteOffset":6024,"byteLength":288,"target":34962},{"buffer":0,"byteOffset":6312,"byteLength":192,"target":34962},{"buffer":0,"byteOffset":6504,"byteLength":144,"target":34963},{"buffer":0,"byteOffset":6648,"byteLength":336,"target":34962},{"buffer":0,"byteOffset":6984,"byteLength":336,"target":34962},{"buffer":0,"byteOffset":7320,"byteLength":224,"target":34962},{"buffer":0,"byteOffset":7544,"byteLength":144,"target":34963},{"buffer":0,"byteOffset":7688,"byteLength":288,"target":34962},{"buffer":0,"byteOffset":7976,"byteLength":288,"target":34962},{"buffer":0,"byteOffset":8264,"byteLength":192,"target":34962},{"buffer":0,"byteOffset":8456,"byteLength":600,"target":34963},{"buffer":0,"byteOffset":9056,"byteLength":432,"target":34962},{"buffer":0,"byteOffset":9488,"byteLength":432,"target":34962},{"buffer":0,"byteOffset":9920,"byteLength":288,"target":34962}],"scene":0,"scenes":[{"nodes":[0,1,2,3,4,5,6,7,8,9,10,11],"name":"Project Name"}],"extensionsUsed":["KHR_texture_transform"],"buffers":[{"byteLength":10208,"uri":"ProjectName.bin"}]}