<svg id="Layer_1" data-name="Layer 1" xmlns="http://www.w3.org/2000/svg" xmlns:xlink="http://www.w3.org/1999/xlink" viewBox="0 0 60.42 80.3"><defs><style>.cls-1{fill:none;}.cls-2{fill:#00dfed;}.cls-2,.cls-3{stroke:#fff;stroke-miterlimit:10;stroke-width:0.3px;}.cls-3{fill:#e1eaff;}.cls-4{fill:#fff;}.cls-5{opacity:0.6;}.cls-6{clip-path:url(#clip-path);}.cls-7{opacity:0.2;}.cls-8{clip-path:url(#clip-path-20);}.cls-9{clip-path:url(#clip-path-22);}.cls-10{clip-path:url(#clip-path-24);}.cls-11{clip-path:url(#clip-path-28);}.cls-12{clip-path:url(#clip-path-30);}.cls-13{clip-path:url(#clip-path-32);}.cls-14{clip-path:url(#clip-path-34);}.cls-15{clip-path:url(#clip-path-36);}</style><clipPath id="clip-path" transform="translate(-21.92 -9.85)"><rect class="cls-1" x="25.48" y="13.15" width="24.4" height="28"/></clipPath><clipPath id="clip-path-20" transform="translate(-21.92 -9.85)"><rect class="cls-1" x="25.64" y="13.46" width="12.2" height="7.35"/></clipPath><clipPath id="clip-path-22" transform="translate(-21.92 -9.85)"><rect class="cls-1" x="25.64" y="20.19" width="23.78" height="14.08"/></clipPath><clipPath id="clip-path-24" transform="translate(-21.92 -9.85)"><rect class="cls-1" x="37.22" y="13.46" width="12.2" height="7.35"/></clipPath><clipPath id="clip-path-28" transform="translate(-21.92 -9.85)"><rect class="cls-1" x="25.64" y="33.49" width="12.2" height="7.35"/></clipPath><clipPath id="clip-path-30" transform="translate(-21.92 -9.85)"><rect class="cls-1" x="37.22" y="33.49" width="12.2" height="7.35"/></clipPath><clipPath id="clip-path-32" transform="translate(-21.92 -9.85)"><rect class="cls-1" x="25.64" y="20.19" width="0.63" height="14.08"/></clipPath><clipPath id="clip-path-34" transform="translate(-21.92 -9.85)"><rect class="cls-1" x="48.79" y="20.19" width="0.63" height="14.08"/></clipPath><clipPath id="clip-path-36" transform="translate(-21.92 -9.85)"><rect class="cls-1" x="37.22" y="13.46" width="0.63" height="27.37"/></clipPath></defs><path class="cls-2" d="M82,30H64.47A2.46,2.46,0,0,1,62,27.55V10H25.79a3.78,3.78,0,0,0-3.72,3.73h0V86.27A3.78,3.78,0,0,0,25.79,90H78.3A3.78,3.78,0,0,0,82,86.27h0V30Z" transform="translate(-21.92 -9.85)"/><path class="cls-3" d="M80.94,26.47,65.72,11.09A3.63,3.63,0,0,0,63.08,10h-.94V27.55A2.46,2.46,0,0,0,64.63,30H82.18v-.93A4.64,4.64,0,0,0,80.94,26.47Z" transform="translate(-21.92 -9.85)"/><path class="cls-4" d="M28.44,75.32a1.24,1.24,0,1,1,1.24,1.24A1.22,1.22,0,0,1,28.44,75.32Z" transform="translate(-21.92 -9.85)"/><path class="cls-4" d="M42.73,66.47V76.56H41V75a4,4,0,0,1-3.42,1.55c-2.64,0-4.35-1.39-4.35-4.35V66.47h1.87v5.59c0,2,.93,3,2.64,3a3,3,0,0,0,3.1-3.26V66.62h1.87Z" transform="translate(-21.92 -9.85)"/><path class="cls-4" d="M45.06,75.48l.77-1.4a6.14,6.14,0,0,0,3.58,1.09c1.71,0,2.33-.47,2.33-1.4,0-2.33-6.37-.31-6.37-4.35,0-1.87,1.55-3,4.19-3a7.4,7.4,0,0,1,3.73.93l-.78,1.4A4.9,4.9,0,0,0,49.56,68c-1.55,0-2.33.62-2.33,1.4,0,2.33,6.37.46,6.37,4.35,0,1.86-1.71,3-4.35,3A8.42,8.42,0,0,1,45.06,75.48Z" transform="translate(-21.92 -9.85)"/><path class="cls-4" d="M65.25,62.43v14H63.54V74.85A4.4,4.4,0,0,1,60,76.56a5.13,5.13,0,1,1,0-10.25,4.51,4.51,0,0,1,3.57,1.55V62.27h1.71Zm-1.86,9A3.31,3.31,0,0,0,60,67.86a3.4,3.4,0,0,0-3.42,3.58,3.42,3.42,0,1,0,6.84,0Z" transform="translate(-21.92 -9.85)"/><path class="cls-4" d="M76.12,75v1.55H67.74V75.32l5.9-7.3H67.89V66.47H76v1.24L70.07,75Z" transform="translate(-21.92 -9.85)"/><g class="cls-5"><g class="cls-6"><path d="M41,16.28h-.31l-3.13-1.72L34.4,16.28a.67.67,0,0,1-.78-.16.69.69,0,0,1,.15-.78l3.45-1.88a.48.48,0,0,1,.62,0l3.44,1.88c.32.16.32.47.16.78,0,.16-.31.16-.47.16" transform="translate(-21.92 -9.85)"/></g><g class="cls-6"><path d="M37.53,31.61A.68.68,0,0,1,36.9,31V27.07a.68.68,0,0,1,.63-.62.67.67,0,0,1,.62.62V31a.57.57,0,0,1-.62.63" transform="translate(-21.92 -9.85)"/></g><g class="cls-6"><path d="M26,25a.67.67,0,0,1-.62-.63V20.5a.63.63,0,0,1,1.25,0v3.91A.67.67,0,0,1,26,25" transform="translate(-21.92 -9.85)"/></g><g class="cls-6"><path d="M49.1,25a.67.67,0,0,1-.62-.63V20.5a.63.63,0,0,1,1.25,0v3.91a.58.58,0,0,1-.63.63" transform="translate(-21.92 -9.85)"/></g><g class="cls-6"><path d="M49.1,34.43a.68.68,0,0,1-.62-.63V29.89a.68.68,0,0,1,.62-.63h0a.68.68,0,0,1,.63.63V33.8c0,.47-.16.63-.63.63Z" transform="translate(-21.92 -9.85)"/></g><g class="cls-6"><path d="M26,34.43a.68.68,0,0,1-.62-.63V29.89a.63.63,0,1,1,1.25,0V33.8a.58.58,0,0,1-.63.63" transform="translate(-21.92 -9.85)"/></g><g class="cls-6"><path d="M37.53,18.63A.69.69,0,0,1,36.9,18V13.78a.68.68,0,0,1,.63-.63.67.67,0,0,1,.62.63V18a.68.68,0,0,1-.62.63" transform="translate(-21.92 -9.85)"/></g><g class="cls-6"><path d="M37.53,41.15a.68.68,0,0,1-.63-.62V36.62a.68.68,0,0,1,.63-.63.67.67,0,0,1,.62.63v3.91a.57.57,0,0,1-.62.62" transform="translate(-21.92 -9.85)"/></g><g class="cls-6"><path d="M37.53,41.15h-.31l-3.45-2c-.31-.16-.31-.47-.15-.78s.47-.32.78-.16l3.13,1.72,3.13-1.72a.56.56,0,1,1,.62.94L38,41a.6.6,0,0,1-.47.15" transform="translate(-21.92 -9.85)"/></g><g class="cls-6"><path d="M37.53,27.7h-.31l-3.45-1.88c-.31-.15-.31-.47-.15-.78s.47-.31.78-.16l3.13,1.72,3.13-1.72a.69.69,0,0,1,.78.16.67.67,0,0,1-.16.78L37.84,27.7h-.31" transform="translate(-21.92 -9.85)"/></g><g class="cls-6"><path d="M45.82,23c-.16,0-.47-.16-.47-.32a.68.68,0,0,1,.16-.78L49,20a.69.69,0,0,1,.78.16.67.67,0,0,1-.16.78l-3.44,1.88C46,23,46,23,45.82,23" transform="translate(-21.92 -9.85)"/></g><g class="cls-6"><path d="M49.1,21.13h-.31l-3.44-1.88c-.31-.15-.31-.47-.16-.78s.47-.31.78-.16l3.45,1.88c.31.16.31.47.15.78a.66.66,0,0,1-.47.16" transform="translate(-21.92 -9.85)"/></g><g class="cls-6"><path d="M29.39,23h-.31l-3.44-1.88c-.31-.16-.31-.47-.16-.78s.47-.32.79-.16l3.44,1.88c.31.15.31.47.15.78-.15,0-.31.16-.47.16" transform="translate(-21.92 -9.85)"/></g><g class="cls-6"><path d="M26,21.13c-.15,0-.47-.16-.47-.31a.7.7,0,0,1,.16-.79l3.44-1.87a.69.69,0,0,1,.78.15.7.7,0,0,1-.15.79L26.27,21a.56.56,0,0,1-.32.16" transform="translate(-21.92 -9.85)"/></g><g class="cls-6"><path d="M45.82,36.46c-.16,0-.47-.16-.47-.31a.69.69,0,0,1,.16-.79L49,33.49a.56.56,0,1,1,.62.94L46.13,36.3a.48.48,0,0,1-.31.16" transform="translate(-21.92 -9.85)"/></g><g class="cls-6"><path d="M49.1,34.43h-.31l-3.44-1.88c-.31-.16-.31-.47-.16-.78s.47-.32.78-.16l3.45,1.88c.31.15.31.47.15.78,0,.16-.15.16-.47.16" transform="translate(-21.92 -9.85)"/></g><g class="cls-6"><path d="M29.39,36.46h-.31l-3.44-1.88c-.31-.15-.31-.47-.16-.78s.47-.31.79-.16l3.44,2c.31.15.31.47.15.78-.15-.16-.31,0-.47,0" transform="translate(-21.92 -9.85)"/></g><g class="cls-6"><path d="M26,34.43c-.15,0-.47-.16-.47-.32a.69.69,0,0,1,.16-.78l3.44-1.88a.57.57,0,0,1,.63.94l-3.44,1.88c0,.16-.16.16-.32.16" transform="translate(-21.92 -9.85)"/></g><g class="cls-6"><g class="cls-7"><g class="cls-8"><path d="M26,20.82c-.15,0-.15,0-.31-.16s0-.31.16-.47l11.57-6.73c.16-.15.31,0,.47.16s0,.31-.16.47L26.11,20.82H26" transform="translate(-21.92 -9.85)"/></g></g></g><g class="cls-6"><g class="cls-7"><g class="cls-9"><path d="M26,34.27c-.15,0-.15,0-.31-.16s0-.31.16-.47L49,20.19c.15-.16.31,0,.47.16s0,.31-.16.47L26.11,34.27H26" transform="translate(-21.92 -9.85)"/></g></g></g><g class="cls-6"><g class="cls-7"><g class="cls-10"><path d="M49.1,20.82H49L37.37,14.09a.59.59,0,0,1-.15-.47.55.55,0,0,1,.46-.16l11.58,6.73a.57.57,0,0,1,.16.47c0,.16-.16.16-.32.16" transform="translate(-21.92 -9.85)"/></g></g></g><g class="cls-6"><g class="cls-7"><g class="cls-9"><path d="M49.1,34.27H49L25.8,20.82a.58.58,0,0,1-.16-.47.57.57,0,0,1,.47-.16L49.26,33.64a.58.58,0,0,1,.16.47.56.56,0,0,1-.32.16" transform="translate(-21.92 -9.85)"/></g></g></g><g class="cls-6"><g class="cls-7"><g class="cls-11"><path d="M37.53,41h-.16L25.8,34.27a.35.35,0,1,1,.31-.63l11.57,6.73a.57.57,0,0,1,.16.47.56.56,0,0,1-.31.16" transform="translate(-21.92 -9.85)"/></g></g></g><g class="cls-6"><g class="cls-7"><g class="cls-12"><path d="M37.53,41c-.16,0-.16,0-.31-.16s0-.31.15-.47L49,33.64c.15-.15.31,0,.47.16s0,.31-.16.47L37.68,41h-.15" transform="translate(-21.92 -9.85)"/></g></g></g><g class="cls-6"><g class="cls-7"><g class="cls-13"><path d="M26,34.27a.34.34,0,0,1-.31-.31V20.5a.32.32,0,0,1,.63,0V34a.34.34,0,0,1-.32.31" transform="translate(-21.92 -9.85)"/></g></g></g><g class="cls-6"><g class="cls-7"><g class="cls-14"><path d="M49.1,34.27a.34.34,0,0,1-.31-.31V20.5a.32.32,0,0,1,.63,0V34c.15.15,0,.31-.32.31" transform="translate(-21.92 -9.85)"/></g></g></g><g class="cls-6"><g class="cls-7"><g class="cls-15"><path d="M37.53,40.84a.33.33,0,0,1-.31-.31V13.78a.33.33,0,0,1,.31-.32.34.34,0,0,1,.31.32V40.53c.16.15,0,.31-.31.31" transform="translate(-21.92 -9.85)"/></g></g></g></g></svg>