<svg id="Layer_1" data-name="Layer 1" xmlns="http://www.w3.org/2000/svg" xmlns:xlink="http://www.w3.org/1999/xlink" viewBox="0 0 60.27 80.3"><defs><style>.cls-1{fill:none;}.cls-2{fill:#e1eaff;stroke:#fff;stroke-miterlimit:10;stroke-width:0.3px;}.cls-3{fill:#000001;}.cls-4{opacity:0.6;}.cls-5{clip-path:url(#clip-path);}.cls-6{opacity:0.2;}.cls-7{clip-path:url(#clip-path-20);}.cls-8{clip-path:url(#clip-path-22);}.cls-9{clip-path:url(#clip-path-24);}.cls-10{clip-path:url(#clip-path-28);}.cls-11{clip-path:url(#clip-path-30);}.cls-12{clip-path:url(#clip-path-32);}.cls-13{clip-path:url(#clip-path-34);}.cls-14{clip-path:url(#clip-path-36);}</style><clipPath id="clip-path" transform="translate(-21.62 -9.85)"><rect class="cls-1" x="28.21" y="50.33" width="24.4" height="28"/></clipPath><clipPath id="clip-path-20" transform="translate(-21.62 -9.85)"><rect class="cls-1" x="28.36" y="50.65" width="12.2" height="7.35"/></clipPath><clipPath id="clip-path-22" transform="translate(-21.62 -9.85)"><rect class="cls-1" x="28.36" y="57.37" width="23.78" height="14.08"/></clipPath><clipPath id="clip-path-24" transform="translate(-21.62 -9.85)"><rect class="cls-1" x="39.94" y="50.65" width="12.2" height="7.35"/></clipPath><clipPath id="clip-path-28" transform="translate(-21.62 -9.85)"><rect class="cls-1" x="28.36" y="70.67" width="12.2" height="7.35"/></clipPath><clipPath id="clip-path-30" transform="translate(-21.62 -9.85)"><rect class="cls-1" x="39.94" y="70.67" width="12.2" height="7.35"/></clipPath><clipPath id="clip-path-32" transform="translate(-21.62 -9.85)"><rect class="cls-1" x="28.36" y="57.37" width="0.63" height="14.08"/></clipPath><clipPath id="clip-path-34" transform="translate(-21.62 -9.85)"><rect class="cls-1" x="51.51" y="57.37" width="0.63" height="14.08"/></clipPath><clipPath id="clip-path-36" transform="translate(-21.62 -9.85)"><rect class="cls-1" x="39.94" y="50.65" width="0.63" height="27.37"/></clipPath></defs><path class="cls-2" d="M81.73,30H64.33a2.46,2.46,0,0,1-2.49-2.49V10H25.49a3.78,3.78,0,0,0-3.72,3.73h0V86.27A3.78,3.78,0,0,0,25.49,90H78a3.78,3.78,0,0,0,3.73-3.73h0Z" transform="translate(-21.62 -9.85)"/><path class="cls-3" d="M80.64,26.47,65.42,11.09A3.63,3.63,0,0,0,62.78,10h-.94V27.55A2.46,2.46,0,0,0,64.33,30H81.88v-.93A3.82,3.82,0,0,0,80.64,26.47Z" transform="translate(-21.62 -9.85)"/><g class="cls-4"><g class="cls-5"><path d="M43.69,53.46h-.31l-3.13-1.72-3.13,1.72a.56.56,0,1,1-.62-.94l3.44-1.87a.46.46,0,0,1,.62,0L44,52.52c.32.16.32.47.16.78,0,.16-.31.16-.47.16" transform="translate(-21.62 -9.85)"/></g><g class="cls-5"><path d="M40.25,68.79a.68.68,0,0,1-.63-.63V64.25a.63.63,0,0,1,1.26,0v3.91a.58.58,0,0,1-.63.63" transform="translate(-21.62 -9.85)"/></g><g class="cls-5"><path d="M28.67,62.22a.67.67,0,0,1-.62-.63V57.68a.63.63,0,0,1,1.25,0v3.91a.67.67,0,0,1-.63.63" transform="translate(-21.62 -9.85)"/></g><g class="cls-5"><path d="M51.83,62.22a.67.67,0,0,1-.63-.63V57.68a.63.63,0,0,1,1.25,0v3.91a.57.57,0,0,1-.62.63" transform="translate(-21.62 -9.85)"/></g><g class="cls-5"><path d="M51.83,71.61A.68.68,0,0,1,51.2,71V67.07a.68.68,0,0,1,.63-.63h0a.68.68,0,0,1,.62.63V71c0,.47-.16.63-.62.63Z" transform="translate(-21.62 -9.85)"/></g><g class="cls-5"><path d="M28.67,71.61a.68.68,0,0,1-.62-.63V67.07a.63.63,0,1,1,1.25,0V71a.58.58,0,0,1-.63.63" transform="translate(-21.62 -9.85)"/></g><g class="cls-5"><path d="M40.25,55.81a.69.69,0,0,1-.63-.63V51a.63.63,0,1,1,1.26,0v4.22a.69.69,0,0,1-.63.63" transform="translate(-21.62 -9.85)"/></g><g class="cls-5"><path d="M40.25,78.33a.68.68,0,0,1-.63-.62V73.8a.63.63,0,0,1,1.26,0v3.91a.57.57,0,0,1-.63.62" transform="translate(-21.62 -9.85)"/></g><g class="cls-5"><path d="M40.25,78.33h-.31l-3.44-2c-.32-.16-.32-.47-.16-.78s.47-.32.78-.16l3.13,1.72,3.13-1.72a.56.56,0,0,1,.62.94l-3.28,1.88a.59.59,0,0,1-.47.15" transform="translate(-21.62 -9.85)"/></g><g class="cls-5"><path d="M40.25,64.88h-.31L36.5,63c-.32-.15-.32-.47-.16-.78s.47-.31.78-.16l3.13,1.72,3.13-1.72a.69.69,0,0,1,.78.16A.67.67,0,0,1,44,63l-3.44,1.88h-.31" transform="translate(-21.62 -9.85)"/></g><g class="cls-5"><path d="M48.54,60.19c-.16,0-.47-.16-.47-.32a.68.68,0,0,1,.16-.78l3.44-1.87a.69.69,0,0,1,.78.15.67.67,0,0,1-.16.78L48.85,60c-.15.16-.15.16-.31.16" transform="translate(-21.62 -9.85)"/></g><g class="cls-5"><path d="M51.83,58.31h-.32l-3.44-1.88c-.31-.15-.31-.47-.16-.78s.47-.31.79-.16l3.44,1.88c.31.16.31.47.15.78a.65.65,0,0,1-.46.16" transform="translate(-21.62 -9.85)"/></g><g class="cls-5"><path d="M32.12,60.19H31.8l-3.44-1.88c-.31-.16-.31-.47-.15-.78s.46-.31.78-.16l3.44,1.88c.31.16.31.47.16.78-.16,0-.32.16-.47.16" transform="translate(-21.62 -9.85)"/></g><g class="cls-5"><path d="M28.67,58.31c-.15,0-.46-.16-.46-.31a.68.68,0,0,1,.15-.78l3.44-1.88a.57.57,0,1,1,.63.94L29,58.15a.56.56,0,0,1-.32.16" transform="translate(-21.62 -9.85)"/></g><g class="cls-5"><path d="M48.54,73.64c-.16,0-.47-.16-.47-.31a.69.69,0,0,1,.16-.79l3.44-1.87a.56.56,0,1,1,.62.94l-3.44,1.87a.46.46,0,0,1-.31.16" transform="translate(-21.62 -9.85)"/></g><g class="cls-5"><path d="M51.83,71.61h-.32l-3.44-1.88c-.31-.16-.31-.47-.16-.78s.47-.32.79-.16l3.44,1.88c.31.15.31.47.15.78,0,.16-.15.16-.46.16" transform="translate(-21.62 -9.85)"/></g><g class="cls-5"><path d="M32.12,73.64H31.8l-3.44-1.88c-.31-.15-.31-.47-.15-.78s.46-.31.78-.16l3.44,2c.31.15.31.47.16.78-.16-.16-.32,0-.47,0" transform="translate(-21.62 -9.85)"/></g><g class="cls-5"><path d="M28.67,71.61c-.15,0-.46-.16-.46-.32a.69.69,0,0,1,.15-.78l3.44-1.88a.7.7,0,0,1,.79.16.69.69,0,0,1-.16.78L29,71.45c0,.16-.16.16-.32.16" transform="translate(-21.62 -9.85)"/></g><g class="cls-5"><g class="cls-6"><g class="cls-7"><path d="M28.67,58c-.15,0-.15,0-.31-.16s0-.31.16-.47l11.57-6.72c.16-.16.32,0,.47.15s0,.31-.15.47L28.83,58h-.16" transform="translate(-21.62 -9.85)"/></g></g></g><g class="cls-5"><g class="cls-6"><g class="cls-8"><path d="M28.67,71.45c-.15,0-.15,0-.31-.16s0-.31.16-.47L51.67,57.37c.16-.15.31,0,.47.16s0,.31-.16.47L28.83,71.45h-.16" transform="translate(-21.62 -9.85)"/></g></g></g><g class="cls-5"><g class="cls-6"><g class="cls-9"><path d="M51.83,58h-.16L40.09,51.27a.59.59,0,0,1-.15-.47.58.58,0,0,1,.47-.15L52,57.37a.57.57,0,0,1,.16.47c0,.16-.16.16-.31.16" transform="translate(-21.62 -9.85)"/></g></g></g><g class="cls-5"><g class="cls-6"><g class="cls-8"><path d="M51.83,71.45h-.16L28.52,58a.58.58,0,0,1-.16-.47.57.57,0,0,1,.47-.16L52,70.82a.58.58,0,0,1,.16.47.56.56,0,0,1-.31.16" transform="translate(-21.62 -9.85)"/></g></g></g><g class="cls-5"><g class="cls-6"><g class="cls-10"><path d="M40.25,78.18h-.16L28.52,71.45a.35.35,0,0,1,.31-.63l11.58,6.73a.59.59,0,0,1,.15.47.52.52,0,0,1-.31.16" transform="translate(-21.62 -9.85)"/></g></g></g><g class="cls-5"><g class="cls-6"><g class="cls-11"><path d="M40.25,78.18c-.16,0-.16,0-.31-.16s0-.31.15-.47l11.58-6.73c.16-.15.31,0,.47.16s0,.31-.16.47L40.41,78.18h-.16" transform="translate(-21.62 -9.85)"/></g></g></g><g class="cls-5"><g class="cls-6"><g class="cls-12"><path d="M28.67,71.45a.34.34,0,0,1-.31-.31V57.68a.32.32,0,0,1,.63,0V71.14a.34.34,0,0,1-.32.31" transform="translate(-21.62 -9.85)"/></g></g></g><g class="cls-5"><g class="cls-6"><g class="cls-13"><path d="M51.83,71.45a.34.34,0,0,1-.32-.31V57.68a.32.32,0,0,1,.63,0V71.14c.15.15,0,.31-.31.31" transform="translate(-21.62 -9.85)"/></g></g></g><g class="cls-5"><g class="cls-6"><g class="cls-14"><path d="M40.25,78a.33.33,0,0,1-.31-.31V51a.31.31,0,0,1,.62,0V77.71c.16.15,0,.31-.31.31" transform="translate(-21.62 -9.85)"/></g></g></g></g><path d="M66.84,70.25,65.7,67.08H61.34l-1.12,3.17h-2l4.27-11.47h2l4.28,11.47Zm-1.63-4.78-1.07-3.11c-.08-.21-.19-.54-.32-1s-.24-.78-.29-1a17.59,17.59,0,0,1-.62,2.1l-1,3Z" transform="translate(-21.62 -9.85)"/><path d="M72.2,65.69v4.56H70.34V58.83h3.22a5.26,5.26,0,0,1,3.28.83,3,3,0,0,1,1.06,2.5,3.13,3.13,0,0,1-2.22,3l3.23,5H76.78l-2.73-4.56Zm0-1.55h1.3a3,3,0,0,0,1.89-.48A1.78,1.78,0,0,0,76,62.22a1.53,1.53,0,0,0-.64-1.39,3.45,3.45,0,0,0-1.9-.42H72.2Z" transform="translate(-21.62 -9.85)"/></svg>