<svg id="Layer_1" data-name="Layer 1" xmlns="http://www.w3.org/2000/svg" xmlns:xlink="http://www.w3.org/1999/xlink" viewBox="0 0 60.42 80.3"><defs><style>.cls-1{fill:none;}.cls-2{fill:#9854fc;}.cls-2,.cls-3{stroke:#fff;stroke-miterlimit:10;stroke-width:0.3px;}.cls-3{fill:#e1eaff;}.cls-4{fill:#fff;}.cls-5{opacity:0.6;}.cls-6{clip-path:url(#clip-path);}.cls-7{opacity:0.2;}.cls-8{clip-path:url(#clip-path-20);}.cls-9{clip-path:url(#clip-path-22);}.cls-10{clip-path:url(#clip-path-24);}.cls-11{clip-path:url(#clip-path-28);}.cls-12{clip-path:url(#clip-path-30);}.cls-13{clip-path:url(#clip-path-32);}.cls-14{clip-path:url(#clip-path-34);}.cls-15{clip-path:url(#clip-path-36);}</style><clipPath id="clip-path" transform="translate(-22.29 -10.85)"><rect class="cls-1" x="26.12" y="17.11" width="24.4" height="28"/></clipPath><clipPath id="clip-path-20" transform="translate(-22.29 -10.85)"><rect class="cls-1" x="26.28" y="17.43" width="12.2" height="7.35"/></clipPath><clipPath id="clip-path-22" transform="translate(-22.29 -10.85)"><rect class="cls-1" x="26.28" y="24.15" width="23.78" height="14.08"/></clipPath><clipPath id="clip-path-24" transform="translate(-22.29 -10.85)"><rect class="cls-1" x="37.85" y="17.43" width="12.2" height="7.35"/></clipPath><clipPath id="clip-path-28" transform="translate(-22.29 -10.85)"><rect class="cls-1" x="26.28" y="37.45" width="12.2" height="7.35"/></clipPath><clipPath id="clip-path-30" transform="translate(-22.29 -10.85)"><rect class="cls-1" x="37.85" y="37.45" width="12.2" height="7.35"/></clipPath><clipPath id="clip-path-32" transform="translate(-22.29 -10.85)"><rect class="cls-1" x="26.28" y="24.15" width="0.63" height="14.08"/></clipPath><clipPath id="clip-path-34" transform="translate(-22.29 -10.85)"><rect class="cls-1" x="49.43" y="24.15" width="0.63" height="14.08"/></clipPath><clipPath id="clip-path-36" transform="translate(-22.29 -10.85)"><rect class="cls-1" x="37.85" y="17.43" width="0.63" height="27.37"/></clipPath></defs><path class="cls-2" d="M82.4,31H64.85a2.46,2.46,0,0,1-2.49-2.49V11H26.17a3.78,3.78,0,0,0-3.73,3.73h0V87.27A3.78,3.78,0,0,0,26.17,91h52.5a3.78,3.78,0,0,0,3.73-3.73h0V31Z" transform="translate(-22.29 -10.85)"/><path class="cls-3" d="M81.32,27.47,66.09,12.09A3.62,3.62,0,0,0,63.45,11h-.93V28.55A2.46,2.46,0,0,0,65,31H82.56v-.93A4.7,4.7,0,0,0,81.32,27.47Z" transform="translate(-22.29 -10.85)"/><path class="cls-4" d="M43.43,74.61a1.25,1.25,0,1,1,1.24,1.24C44.05,76,43.43,75.39,43.43,74.61Z" transform="translate(-22.29 -10.85)"/><path class="cls-4" d="M57.88,65.76v8.7c0,3.57-1.87,5.12-5.28,5.12A6.91,6.91,0,0,1,47.78,78l.93-1.4a6.12,6.12,0,0,0,3.89,1.24c2.33,0,3.41-1.08,3.41-3.41v-.78a4.48,4.48,0,0,1-3.57,1.55,4.82,4.82,0,1,1,0-9.63,4.71,4.71,0,0,1,3.73,1.71V65.76Zm-1.71,4.81a3.14,3.14,0,0,0-3.42-3.26,3.14,3.14,0,0,0-3.42,3.26,3.42,3.42,0,0,0,6.84,0Z" transform="translate(-22.29 -10.85)"/><path class="cls-4" d="M61.45,61.87h1.87v14H61.45Z" transform="translate(-22.29 -10.85)"/><path class="cls-4" d="M77.14,70.88A4.89,4.89,0,0,1,72,76a4.21,4.21,0,0,1-3.57-1.71v1.55H66.73v-14H68.6v5.6a4.09,4.09,0,0,1,3.57-1.56A4.65,4.65,0,0,1,77.14,70.88Zm-1.86,0a3.31,3.31,0,0,0-3.42-3.57,3.39,3.39,0,0,0-3.42,3.57,3.31,3.31,0,0,0,3.42,3.58A3.49,3.49,0,0,0,75.28,70.88Z" transform="translate(-22.29 -10.85)"/><g class="cls-5"><g class="cls-6"><path d="M41.61,20.24H41.3l-3.13-1.72L35,20.24a.69.69,0,0,1-.78-.15.7.7,0,0,1,.15-.79l3.44-1.87a.47.47,0,0,1,.63,0l3.44,1.87c.31.16.31.47.16.79,0,.15-.31.15-.47.15" transform="translate(-22.29 -10.85)"/></g><g class="cls-6"><path d="M38.17,35.57a.67.67,0,0,1-.63-.62V31a.63.63,0,1,1,1.25,0V35a.57.57,0,0,1-.62.62" transform="translate(-22.29 -10.85)"/></g><g class="cls-6"><path d="M26.59,29a.67.67,0,0,1-.62-.62V24.47a.67.67,0,0,1,.62-.63.68.68,0,0,1,.63.63v3.91a.68.68,0,0,1-.63.62" transform="translate(-22.29 -10.85)"/></g><g class="cls-6"><path d="M49.74,29a.67.67,0,0,1-.62-.62V24.47a.63.63,0,1,1,1.25,0v3.91a.57.57,0,0,1-.63.62" transform="translate(-22.29 -10.85)"/></g><g class="cls-6"><path d="M49.74,38.39a.67.67,0,0,1-.62-.63V33.85a.67.67,0,0,1,.62-.62h0a.67.67,0,0,1,.63.62v3.91c0,.47-.16.63-.63.63Z" transform="translate(-22.29 -10.85)"/></g><g class="cls-6"><path d="M26.59,38.39a.67.67,0,0,1-.62-.63V33.85a.67.67,0,0,1,.62-.62.68.68,0,0,1,.63.62v3.91a.58.58,0,0,1-.63.63" transform="translate(-22.29 -10.85)"/></g><g class="cls-6"><path d="M38.17,22.59a.67.67,0,0,1-.63-.63V17.74a.63.63,0,1,1,1.25,0V22a.67.67,0,0,1-.62.63" transform="translate(-22.29 -10.85)"/></g><g class="cls-6"><path d="M38.17,45.11a.67.67,0,0,1-.63-.62V40.58a.63.63,0,1,1,1.25,0v3.91a.57.57,0,0,1-.62.62" transform="translate(-22.29 -10.85)"/></g><g class="cls-6"><path d="M38.17,45.11h-.32l-3.44-2c-.31-.16-.31-.47-.15-.78s.47-.31.78-.16l3.13,1.72,3.13-1.72a.56.56,0,1,1,.62.94L38.64,45a.6.6,0,0,1-.47.15" transform="translate(-22.29 -10.85)"/></g><g class="cls-6"><path d="M38.17,31.66h-.32l-3.44-1.88c-.31-.15-.31-.46-.15-.78s.47-.31.78-.15l3.13,1.72,3.13-1.72a.56.56,0,1,1,.62.93l-3.44,1.88h-.31" transform="translate(-22.29 -10.85)"/></g><g class="cls-6"><path d="M46.46,27c-.16,0-.47-.16-.47-.31a.69.69,0,0,1,.16-.79L49.59,24a.56.56,0,1,1,.62.94l-3.44,1.87c-.16.16-.16.16-.31.16" transform="translate(-22.29 -10.85)"/></g><g class="cls-6"><path d="M49.74,25.09h-.31L46,23.21c-.31-.15-.31-.46-.16-.78s.47-.31.78-.15l3.45,1.87c.31.16.31.47.15.79a.68.68,0,0,1-.47.15" transform="translate(-22.29 -10.85)"/></g><g class="cls-6"><path d="M30,27h-.31l-3.44-1.88c-.31-.15-.31-.47-.16-.78s.47-.31.78-.16L30.35,26c.31.16.31.47.15.78-.15,0-.31.16-.47.16" transform="translate(-22.29 -10.85)"/></g><g class="cls-6"><path d="M26.59,25.09c-.15,0-.47-.15-.47-.31a.69.69,0,0,1,.16-.78l3.44-1.88a.67.67,0,0,1,.78.16.69.69,0,0,1-.15.78L26.9,24.94a.53.53,0,0,1-.31.15" transform="translate(-22.29 -10.85)"/></g><g class="cls-6"><path d="M46.46,40.42c-.16,0-.47-.16-.47-.31a.67.67,0,0,1,.16-.78l3.44-1.88a.56.56,0,1,1,.62.94l-3.44,1.87a.48.48,0,0,1-.31.16" transform="translate(-22.29 -10.85)"/></g><g class="cls-6"><path d="M49.74,38.39h-.31L46,36.51c-.31-.16-.31-.47-.16-.78s.47-.31.78-.16l3.45,1.88c.31.16.31.47.15.78,0,.16-.15.16-.47.16" transform="translate(-22.29 -10.85)"/></g><g class="cls-6"><path d="M30,40.42h-.31l-3.44-1.88c-.31-.15-.31-.46-.16-.78s.47-.31.78-.15l3.45,2c.31.16.31.47.15.78-.15-.16-.31,0-.47,0" transform="translate(-22.29 -10.85)"/></g><g class="cls-6"><path d="M26.59,38.39c-.15,0-.47-.16-.47-.31a.7.7,0,0,1,.16-.79l3.44-1.87a.56.56,0,1,1,.63.93L26.9,38.23c0,.16-.15.16-.31.16" transform="translate(-22.29 -10.85)"/></g><g class="cls-6"><g class="cls-7"><g class="cls-8"><path d="M26.59,24.78c-.15,0-.15,0-.31-.16s0-.31.16-.47L38,17.43c.16-.16.31,0,.47.15s0,.32-.16.47L26.75,24.78h-.16" transform="translate(-22.29 -10.85)"/></g></g></g><g class="cls-6"><g class="cls-7"><g class="cls-9"><path d="M26.59,38.23c-.15,0-.15,0-.31-.15s0-.32.16-.47L49.59,24.15c.15-.15.31,0,.47.16s0,.31-.16.47L26.75,38.23h-.16" transform="translate(-22.29 -10.85)"/></g></g></g><g class="cls-6"><g class="cls-7"><g class="cls-10"><path d="M49.74,24.78h-.15L38,18.05a.56.56,0,0,1-.16-.47.6.6,0,0,1,.47-.15L49.9,24.15a.58.58,0,0,1,.16.47c0,.16-.16.16-.32.16" transform="translate(-22.29 -10.85)"/></g></g></g><g class="cls-6"><g class="cls-7"><g class="cls-9"><path d="M49.74,38.23h-.15L26.44,24.78a.57.57,0,0,1-.16-.47.57.57,0,0,1,.47-.16L49.9,37.61a.56.56,0,0,1,.16.47.57.57,0,0,1-.32.15" transform="translate(-22.29 -10.85)"/></g></g></g><g class="cls-6"><g class="cls-7"><g class="cls-11"><path d="M38.17,45H38L26.44,38.23a.56.56,0,0,1-.16-.47.59.59,0,0,1,.47-.15l11.57,6.72a.57.57,0,0,1,.16.47.56.56,0,0,1-.31.16" transform="translate(-22.29 -10.85)"/></g></g></g><g class="cls-6"><g class="cls-7"><g class="cls-12"><path d="M38.17,45c-.16,0-.16,0-.32-.16s0-.31.16-.47l11.58-6.72c.15-.16.31,0,.47.15s0,.32-.16.47L38.32,45h-.15" transform="translate(-22.29 -10.85)"/></g></g></g><g class="cls-6"><g class="cls-7"><g class="cls-13"><path d="M26.59,38.23a.33.33,0,0,1-.31-.31V24.47a.34.34,0,0,1,.31-.32.33.33,0,0,1,.31.32V37.92a.33.33,0,0,1-.31.31" transform="translate(-22.29 -10.85)"/></g></g></g><g class="cls-6"><g class="cls-7"><g class="cls-14"><path d="M49.74,38.23a.33.33,0,0,1-.31-.31V24.47a.32.32,0,1,1,.63,0V37.92c.15.16,0,.31-.32.31" transform="translate(-22.29 -10.85)"/></g></g></g><g class="cls-6"><g class="cls-7"><g class="cls-15"><path d="M38.17,44.8a.34.34,0,0,1-.32-.31V17.74a.32.32,0,0,1,.63,0V44.49c.16.15,0,.31-.31.31" transform="translate(-22.29 -10.85)"/></g></g></g></g></svg>